<?xml version="1.0" standalone="no"?>
<!DOCTYPE svg PUBLIC "-//W3C//DTD SVG 20010904//EN"
 "http://www.w3.org/TR/2001/REC-SVG-20010904/DTD/svg10.dtd">
<svg version="1.0" xmlns="http://www.w3.org/2000/svg"
 width="1518.000000pt" height="1580.000000pt" viewBox="0 0 1518.000000 1580.000000"
 preserveAspectRatio="xMidYMid meet">

<g transform="translate(0.000000,1580.000000) scale(0.100000,-0.100000)"
fill="#000000" stroke="none">
<path d="M7253 15790 c-793 -38 -1539 -193 -2278 -475 -1799 -684 -3299 -2077
-4164 -3865 -823 -1704 -1025 -3662 -569 -5515 252 -1025 719 -2023 1333
-2845 266 -356 504 -628 816 -935 216 -212 326 -311 527 -473 1199 -969 2575
-1525 4092 -1653 207 -17 745 -23 970 -10 877 50 1680 237 2500 584 211 89
636 306 855 437 992 591 1828 1387 2479 2358 1023 1527 1491 3389 1320 5257
-201 2204 -1278 4209 -2984 5552 -1171 922 -2582 1469 -4055 1573 -206 14
-645 20 -842 10z m-509 -2420 c596 -152 1162 -1157 1745 -3095 104 -348 225
-781 341 -1220 46 -170 87 -326 92 -347 l10 -36 141 -6 c78 -3 259 -8 402 -11
359 -8 1453 -43 1720 -55 589 -27 1513 -83 1639 -100 138 -18 258 -106 323
-238 26 -52 28 -66 28 -172 0 -109 -2 -119 -32 -182 -44 -94 -109 -160 -202
-206 l-75 -37 -1841 -5 -1842 -5 52 -230 c29 -126 80 -354 114 -505 389 -1731
767 -2724 1097 -2886 49 -24 63 -26 142 -22 122 6 199 42 296 141 214 215 373
582 806 1862 262 772 328 956 352 983 37 40 103 65 153 57 64 -9 129 -70 145
-133 11 -46 8 -60 -39 -233 -27 -101 -78 -303 -111 -449 -295 -1271 -464
-1819 -716 -2322 -206 -412 -424 -675 -695 -840 -177 -107 -430 -154 -620
-114 -399 85 -766 553 -1096 1401 -273 700 -559 1650 -894 2968 l-83 327
-1652 0 -1652 0 -10 -37 c-9 -34 -85 -287 -543 -1806 -135 -446 -133 -441
-213 -518 -17 -15 -55 -40 -85 -56 -49 -24 -67 -28 -141 -28 -73 1 -93 5 -139
29 -122 63 -201 177 -209 301 -6 93 150 1000 301 1752 l73 362 -716 3 -717 3
-89 44 c-213 106 -338 316 -321 541 7 88 40 186 86 259 46 72 149 164 223 200
109 53 143 55 752 42 303 -6 658 -11 788 -11 l237 0 10 38 c6 20 22 89 36 152
36 158 123 495 206 797 354 1286 742 2252 1151 2867 257 387 541 644 823 745
150 54 316 65 449 31z"/>
<path d="M6475 12314 c-58 -32 -96 -67 -157 -143 -323 -400 -701 -1320 -1063
-2586 -102 -355 -231 -853 -224 -859 5 -5 2799 -39 2804 -35 4 5 -147 590
-270 1039 -144 530 -390 1351 -476 1592 -156 434 -381 918 -454 974 -43 32
-118 41 -160 18z"/>
</g>
</svg>
